<svg xmlns="http://www.w3.org/2000/svg" viewBox="0 0 760 560" role="img" aria-label="">
  <defs>
    <linearGradient id="paper" x1="0" x2="1" y1="0" y2="1">
      <stop offset="0" stop-color="#fff8ef"/>
      <stop offset="1" stop-color="#f3d6b7"/>
    </linearGradient>
    <linearGradient id="ink" x1="0" x2="1">
      <stop offset="0" stop-color="#8d5833"/>
      <stop offset="1" stop-color="#3f2819"/>
    </linearGradient>
    <filter id="shadow" x="-20%" y="-20%" width="140%" height="140%">
      <feDropShadow dx="0" dy="22" stdDeviation="18" flood-color="#8d5833" flood-opacity=".18"/>
    </filter>
  </defs>
  <rect width="760" height="560" rx="28" fill="url(#paper)"/>
  <g filter="url(#shadow)">
    <rect x="92" y="90" width="576" height="360" rx="18" fill="#fff8ef" stroke="#d8b48d" stroke-width="3"/>
    <rect x="92" y="90" width="576" height="62" rx="18" fill="url(#ink)"/>
    <circle cx="130" cy="121" r="8" fill="#d9a15f"/>
    <circle cx="158" cy="121" r="8" fill="#f3d6b7"/>
    <circle cx="186" cy="121" r="8" fill="#b86f50"/>
    <rect x="134" y="204" width="214" height="22" rx="11" fill="#3f2819"/>
    <rect x="134" y="250" width="330" height="14" rx="7" fill="#b86f50"/>
    <rect x="134" y="282" width="274" height="14" rx="7" fill="#c69261"/>
    <rect x="134" y="326" width="116" height="48" fill="#8d5833"/>
    <rect x="282" y="326" width="116" height="48" fill="none" stroke="#b86f50" stroke-width="3"/>
    <rect x="492" y="196" width="112" height="178" fill="#f3d6b7"/>
    <rect x="516" y="222" width="64" height="14" rx="7" fill="#b86f50"/>
    <rect x="516" y="258" width="64" height="76" rx="12" fill="#8d5833"/>
  </g>
  <path d="M78 486 C184 448 246 520 352 480 S548 430 682 482" fill="none" stroke="#b86f50" stroke-width="5" opacity=".35"/>
</svg>
